<?xml version="1.0" encoding="utf-8"?>
<!-- Generator: Adobe Illustrator 24.3.0, SVG Export Plug-In . SVG Version: 6.00 Build 0)  -->
<svg version="1.1" id="Layer_1" xmlns="http://www.w3.org/2000/svg" xmlns:xlink="http://www.w3.org/1999/xlink" x="0px" y="0px"
	 viewBox="0 0 40 40" style="enable-background:new 0 0 40 40;" xml:space="preserve">
<style type="text/css">
	.st0{fill:#565656;}
</style>
<path color-rendering="auto" image-rendering="auto" shape-rendering="auto" class="st0" d="M17.36,11.43
	c-3.27,0-5.93,2.67-5.93,5.93c0,3.27,2.67,5.93,5.93,5.93c1.34,0,2.57-0.45,3.57-1.21c0.02,0.02,0.04,0.05,0.06,0.07l6.15,6.15
	c0.32,0.33,0.84,0.34,1.17,0.02c0.33-0.32,0.34-0.84,0.02-1.17c-0.01-0.01-0.02-0.02-0.02-0.02l-6.15-6.15
	c-0.02-0.02-0.04-0.04-0.07-0.06c0.75-0.99,1.21-2.23,1.21-3.57C23.3,14.1,20.63,11.43,17.36,11.43L17.36,11.43z M17.36,12.91
	c2.47,0,4.45,1.98,4.45,4.45c0,2.47-1.98,4.45-4.45,4.45s-4.45-1.98-4.45-4.45C12.91,14.9,14.9,12.91,17.36,12.91z"/>
</svg>
